<?xml version="1.0" standalone="no"?>
<!DOCTYPE svg PUBLIC "-//W3C//DTD SVG 20010904//EN"
 "http://www.w3.org/TR/2001/REC-SVG-20010904/DTD/svg10.dtd">
<svg version="1.0" xmlns="http://www.w3.org/2000/svg"
 width="320.000000pt" height="205.000000pt" viewBox="0 0 320.000000 205.000000"
 preserveAspectRatio="xMidYMid meet">

<g transform="translate(0.000000,205.000000) scale(0.100000,-0.100000)"
fill="#000000" stroke="none">
<path d="M1770 1805 c0 -27 19 -54 49 -70 38 -19 46 -1 23 46 -12 24 -25 35
-44 37 -21 2 -28 -1 -28 -13z m65 -26 c11 -16 1 -19 -13 -3 -7 8 -8 14 -3 14
5 0 13 -5 16 -11z m-20 -19 c3 -5 1 -10 -4 -10 -6 0 -11 5 -11 10 0 6 2 10 4
10 3 0 8 -4 11 -10z"/>
<path d="M1935 1776 c-17 -7 -37 -21 -45 -31 -13 -17 -13 -18 0 -11 8 4 7 1
-4 -8 -22 -18 -14 -36 14 -29 26 7 66 56 50 61 -7 3 -4 9 7 18 22 17 16 17
-22 0z m-5 -50 c0 -2 -7 -7 -16 -10 -8 -3 -12 -2 -9 4 6 10 25 14 25 6z"/>
<path d="M1625 1738 c-45 -16 -82 -55 -99 -104 -13 -38 -13 -44 0 -44 8 0 14
-4 14 -9 0 -11 56 -32 64 -24 3 4 6 1 6 -6 0 -8 6 -11 17 -7 10 4 14 4 10 0
-9 -10 85 -39 183 -58 41 -8 134 -18 207 -22 l132 -7 6 29 c4 16 8 34 10 41 2
6 -1 28 -7 49 -7 28 -12 34 -19 23 -7 -10 -8 -8 -7 10 5 38 -59 83 -125 89
-53 4 -134 -19 -123 -36 2 -4 -9 -9 -25 -10 -16 -1 -29 3 -29 8 0 6 -5 8 -12
4 -6 -4 -8 -3 -4 4 9 16 -43 61 -84 72 -43 12 -76 12 -115 -2z m185 -54 c0 -2
-9 0 -20 6 -11 6 -20 13 -20 16 0 2 9 0 20 -6 11 -6 20 -13 20 -16z m160 -4
c-8 -5 -22 -9 -30 -9 -10 0 -8 3 5 9 27 12 43 12 25 0z"/>
<path d="M1421 1614 c0 -11 3 -14 6 -6 3 7 2 16 -1 19 -3 4 -6 -2 -5 -13z"/>
<path d="M2337 1273 c-3 -5 -48 -142 -101 -306 -53 -164 -99 -304 -102 -312
-5 -12 5 -15 50 -15 45 0 58 4 63 18 21 64 57 126 92 161 23 23 45 41 50 41 6
0 1 -25 -10 -57 -40 -116 -16 -163 85 -163 54 0 58 1 67 30 l11 29 25 -29 c24
-29 29 -30 103 -30 l78 0 16 47 c9 26 16 48 16 50 0 2 -27 3 -61 3 -45 0 -60
3 -57 13 3 6 13 36 22 65 16 46 21 52 45 52 24 0 29 6 43 50 l16 50 -25 0
c-21 0 -24 3 -19 23 21 72 21 72 -30 85 -25 7 -48 11 -50 9 -2 -2 -12 -28 -22
-58 -17 -48 -22 -54 -49 -57 -26 -3 -31 -9 -45 -53 l-16 -49 30 0 c20 0 29 -4
26 -12 -3 -7 -13 -37 -22 -65 -17 -52 -18 -53 -57 -53 -21 0 -39 2 -39 4 0 2
7 23 15 46 24 67 20 126 -11 157 -22 22 -32 25 -75 21 -27 -3 -49 -2 -49 1 0
3 22 72 48 153 27 82 46 150 44 153 -8 8 -100 6 -105 -2z"/>
<path d="M810 1259 c-76 -6 -231 -53 -342 -103 l-58 -26 22 -45 c12 -25 25
-45 28 -45 4 0 49 18 101 39 114 48 237 81 300 81 54 0 99 -29 99 -63 -1 -68
-115 -205 -231 -280 -57 -36 -155 -74 -165 -64 -5 4 50 183 84 275 3 9 -11 12
-51 12 -64 0 -51 21 -128 -215 -28 -88 -54 -166 -56 -172 -7 -17 124 -18 199
-2 110 23 263 125 353 236 64 78 87 127 92 198 4 51 2 65 -19 94 -48 71 -105
91 -228 80z"/>
<path d="M1441 1001 l-85 -261 -63 0 c-35 0 -63 3 -63 6 0 3 13 16 29 30 39
33 74 105 66 137 -9 36 -46 67 -89 74 -151 24 -320 -239 -209 -327 23 -18 40
-20 160 -20 l133 0 11 28 c20 56 22 58 27 37 2 -11 13 -30 25 -42 17 -20 31
-23 89 -23 68 0 69 0 74 30 l6 30 28 -30 c26 -27 34 -30 94 -30 72 0 73 1 92
75 6 24 4 25 -40 25 -30 0 -46 4 -46 13 0 6 15 58 33 114 l34 101 -42 4 c-69
5 -70 5 -107 -115 l-35 -112 -47 -3 c-55 -4 -59 -31 28 233 l62 190 -25 25
c-15 14 -33 35 -41 48 -14 22 -19 10 -99 -237z m-271 -161 c-24 -22 -46 -37
-48 -35 -7 7 27 49 50 62 44 24 43 12 -2 -27z"/>
<path d="M1680 1182 c-16 -17 -30 -40 -30 -52 0 -12 14 -35 30 -52 24 -24 36
-29 58 -24 32 8 72 50 72 76 0 26 -40 68 -72 76 -22 5 -34 0 -58 -24z"/>
<path d="M745 269 c-4 -11 -4 -23 -1 -26 3 -4 6 1 6 11 0 9 4 14 10 11 6 -3 7
1 4 9 -8 21 -11 20 -19 -5z"/>
<path d="M792 270 c0 -14 2 -19 5 -12 2 6 2 18 0 25 -3 6 -5 1 -5 -13z"/>
<path d="M1392 270 c0 -14 2 -19 5 -12 2 6 2 18 0 25 -3 6 -5 1 -5 -13z"/>
<path d="M821 254 c0 -11 3 -14 6 -6 3 7 2 16 -1 19 -3 4 -6 -2 -5 -13z"/>
<path d="M891 254 c0 -11 3 -14 6 -6 3 7 2 16 -1 19 -3 4 -6 -2 -5 -13z"/>
<path d="M931 241 c0 -16 3 -20 6 -11 3 8 10 20 14 26 5 7 3 11 -6 11 -10 0
-15 -10 -14 -26z"/>
<path d="M1040 246 c0 -14 4 -27 8 -30 5 -3 6 8 4 25 -5 35 -12 38 -12 5z"/>
<path d="M1086 255 c-3 -9 -6 -22 -5 -28 0 -7 5 -1 10 12 5 13 8 26 5 28 -2 2
-6 -3 -10 -12z"/>
<path d="M1121 254 c0 -11 3 -14 6 -6 3 7 2 16 -1 19 -3 4 -6 -2 -5 -13z"/>
<path d="M1241 240 c1 -17 3 -19 6 -7 2 9 11 17 18 17 7 0 15 -8 17 -17 3 -13
5 -11 9 7 5 22 2 25 -23 25 -24 0 -28 -4 -27 -25z"/>
<path d="M1352 245 c0 -16 2 -22 5 -12 2 9 2 23 0 30 -3 6 -5 -1 -5 -18z"/>
<path d="M1491 254 c0 -11 3 -14 6 -6 3 7 2 16 -1 19 -3 4 -6 -2 -5 -13z"/>
<path d="M1534 255 c-3 -8 -4 -20 -2 -27 3 -7 7 -1 10 15 6 29 1 36 -8 12z"/>
<path d="M1150 250 c0 -5 5 -10 11 -10 5 0 7 5 4 10 -3 6 -8 10 -11 10 -2 0
-4 -4 -4 -10z"/>
<path d="M776 237 c3 -10 9 -15 12 -12 3 3 0 11 -7 18 -10 9 -11 8 -5 -6z"/>
<path d="M851 234 c0 -11 3 -14 6 -6 3 7 2 16 -1 19 -3 4 -6 -2 -5 -13z"/>
<path d="M1451 234 c0 -11 3 -14 6 -6 3 7 2 16 -1 19 -3 4 -6 -2 -5 -13z"/>
<path d="M1612 236 c7 -8 15 -12 17 -11 5 6 -10 25 -20 25 -5 0 -4 -6 3 -14z"/>
</g>
</svg>
