<svg version="1.1" id="Layer_1" xmlns="http://www.w3.org/2000/svg" xmlns:xlink="http://www.w3.org/1999/xlink" x="0px" y="0px" width="100%px" viewBox="0 0 905 721" enable-background="new 0 0 905 721" xml:space="preserve" height="100px" transform="rotate(0) scale(1, 1)">
<path fill="#ffffff00" opacity="1.000000" stroke="none" d="&#xA;M424.000000,722.000000 &#xA;&#9;C283.064240,722.000000 142.128494,722.000000 1.000000,722.000000 &#xA;&#9;C1.000000,548.643372 1.000000,375.286713 1.344036,201.612564 &#xA;&#9;C5.027036,213.061142 11.709163,222.477356 21.990671,229.943237 &#xA;&#9;C7.902472,206.872742 16.384127,188.664795 34.669334,172.054245 &#xA;&#9;C23.623627,173.398132 14.379342,175.886368 6.657794,183.021729 &#xA;&#9;C5.873583,184.087204 5.389079,185.016693 4.942904,185.968506 &#xA;&#9;C4.981235,185.990845 4.942264,185.911133 4.637645,186.045929 &#xA;&#9;C3.222018,186.787170 2.111010,187.393585 1.000001,188.000000 &#xA;&#9;C1.000000,125.712837 1.000000,63.425667 1.000000,1.000000 &#xA;&#9;C132.023300,1.000000 263.046631,1.000000 394.550995,1.414758 &#xA;&#9;C395.688019,6.177358 396.917267,10.527853 396.897186,14.872569 &#xA;&#9;C396.824097,30.672255 395.737274,46.486561 396.175720,62.263592 &#xA;&#9;C396.572723,76.548454 403.277588,88.525154 415.510193,95.833206 &#xA;&#9;C424.772980,101.366989 435.426941,104.537445 445.335510,109.037651 &#xA;&#9;C451.658844,111.909554 458.607269,114.283936 463.755157,118.666962 &#xA;&#9;C472.271271,125.917778 477.115875,135.519485 478.245514,147.236984 &#xA;&#9;C479.131287,156.424606 477.885681,165.144928 475.961273,173.875473 &#xA;&#9;C474.866882,178.840332 470.125793,179.773361 466.664642,176.079880 &#xA;&#9;C465.569733,174.911499 464.909637,173.344086 463.994568,171.997360 &#xA;&#9;C455.835175,159.989136 448.739136,147.051514 439.267120,136.185837 &#xA;&#9;C420.539978,114.703194 398.333008,97.492661 371.897247,85.804573 &#xA;&#9;C351.176880,76.643440 329.648926,70.846184 307.300507,69.321396 &#xA;&#9;C292.385529,68.303764 277.205292,69.714615 262.247955,71.135605 &#xA;&#9;C242.091629,73.050514 223.075378,79.646675 205.032379,88.597366 &#xA;&#9;C183.909393,99.075974 165.154083,112.835724 149.023773,130.276489 &#xA;&#9;C137.696808,142.523666 127.918076,155.708023 119.923836,170.302002 &#xA;&#9;C108.770462,190.663193 101.637711,212.351105 97.965141,235.698059 &#xA;&#9;C108.337646,242.342697 118.578651,249.318390 129.213943,255.629639 &#xA;&#9;C151.383850,268.785828 173.348755,282.380707 196.167740,294.324524 &#xA;&#9;C220.470139,307.044769 245.352631,318.784454 270.551544,329.628418 &#xA;&#9;C296.101532,340.623505 322.082062,350.767334 348.362213,359.875336 &#xA;&#9;C375.704926,369.351593 403.411621,377.964813 431.363403,385.444611 &#xA;&#9;C460.436096,393.224365 489.843658,399.957458 519.381470,405.732880 &#xA;&#9;C545.496460,410.839020 571.961487,414.214935 598.330627,417.939392 &#xA;&#9;C615.367676,420.345764 632.488281,422.226013 649.612793,423.926208 &#xA;&#9;C663.212219,425.276459 676.862915,426.208252 690.511536,426.941162 &#xA;&#9;C707.199768,427.837280 723.904358,428.589172 740.611511,428.927124 &#xA;&#9;C757.103394,429.260712 773.609009,428.870758 790.104309,429.102325 &#xA;&#9;C793.666626,429.152313 795.221985,427.858368 796.694641,424.844849 &#xA;&#9;C809.335815,398.976990 815.127991,371.447235 815.798401,342.903992 &#xA;&#9;C816.051208,332.136536 814.268005,321.285614 812.974365,310.525452 &#xA;&#9;C810.694702,291.563446 804.629456,273.654877 796.156799,256.661530 &#xA;&#9;C783.565308,231.406967 766.575317,209.570328 744.414124,191.818207 &#xA;&#9;C727.941650,178.622986 710.031494,168.057190 690.160889,161.014954 &#xA;&#9;C664.575439,151.947296 638.304810,147.134109 611.046143,150.039413 &#xA;&#9;C600.802429,151.131210 590.466919,152.025299 580.421448,154.171463 &#xA;&#9;C561.160522,158.286407 543.027527,165.600525 526.219299,175.975708 &#xA;&#9;C520.669800,179.401230 515.446960,183.392746 509.738281,186.509048 &#xA;&#9;C506.558594,188.244812 502.409332,191.450668 499.086548,187.320068 &#xA;&#9;C495.912018,183.373795 498.351654,178.774521 501.424774,176.405365 &#xA;&#9;C507.147705,171.993332 513.415833,167.959808 520.033997,165.107513 &#xA;&#9;C532.990173,159.523697 546.774658,155.749496 559.429749,149.606064 &#xA;&#9;C578.349487,140.421448 590.993164,125.054840 598.065796,105.139221 &#xA;&#9;C602.867371,91.618713 607.408142,77.959358 615.941284,66.124352 &#xA;&#9;C617.711243,63.669544 619.139465,60.968418 621.388062,57.299187 &#xA;&#9;C614.561401,58.310272 608.908813,59.196541 603.241699,59.978081 &#xA;&#9;C581.901917,62.921021 561.547058,68.832390 542.756836,79.649139 &#xA;&#9;C523.099854,90.964851 508.808716,106.729744 501.791687,128.585861 &#xA;&#9;C498.327271,139.376602 497.650299,150.502350 497.987732,161.743317 &#xA;&#9;C498.119324,166.128632 496.811462,170.045959 492.615936,171.943604 &#xA;&#9;C490.985931,172.680847 488.299072,172.589554 486.838745,171.679718 &#xA;&#9;C485.812866,171.040573 485.595001,168.327774 485.788147,166.628693 &#xA;&#9;C487.768188,149.210464 490.688568,131.859222 491.782776,114.391319 &#xA;&#9;C492.905029,96.475670 491.118408,78.600761 486.031586,61.189590 &#xA;&#9;C479.305847,38.168659 467.142914,19.435507 444.696838,9.036473 &#xA;&#9;C437.720825,5.804548 430.246307,3.648548 423.000000,0.999996 &#xA;&#9;C583.924683,1.000000 744.849426,1.000000 906.000000,1.000000 &#xA;&#9;C906.000000,146.356583 906.000000,291.713287 905.666382,437.402008 &#xA;&#9;C900.836060,428.988373 895.508118,420.971832 885.448547,414.989502 &#xA;&#9;C886.250366,417.549957 886.529846,418.734985 886.984314,419.848602 &#xA;&#9;C892.541687,433.467377 892.358032,446.606384 882.998474,458.552307 &#xA;&#9;C879.500793,463.016388 875.062927,466.743774 870.691284,470.894958 &#xA;&#9;C868.801453,471.937286 867.274170,472.891693 865.746948,473.846130 &#xA;&#9;C865.985046,474.205170 866.223206,474.564209 866.461365,474.923248 &#xA;&#9;C867.663818,474.556305 868.866272,474.189362 870.498596,473.858398 &#xA;&#9;C871.850220,473.587494 872.776855,473.294189 873.693054,472.971497 &#xA;&#9;C883.740356,469.432526 893.671204,465.689178 901.049500,457.443909 &#xA;&#9;C902.685059,455.616180 904.349060,453.813965 906.000000,452.000000 &#xA;&#9;C906.000000,541.946289 906.000000,631.892578 906.000000,722.000000 &#xA;&#9;C755.976685,722.000000 605.953369,722.000000 455.653076,721.653320 &#xA;&#9;C457.287476,720.874084 459.178040,720.267456 461.113464,720.036194 &#xA;&#9;C477.434052,718.085999 492.904724,713.040771 507.149719,705.177917 &#xA;&#9;C524.357910,695.679321 541.165833,685.384766 557.675293,674.705444 &#xA;&#9;C596.872925,649.349792 634.792603,622.195251 669.502197,590.868408 &#xA;&#9;C685.205078,576.695923 700.299316,561.836121 715.404358,547.017639 &#xA;&#9;C735.354126,527.446167 752.293335,505.383881 767.965759,482.307678 &#xA;&#9;C768.675598,481.262573 770.082825,480.264252 771.301819,480.060120 &#xA;&#9;C780.018982,478.600311 788.764832,477.304474 797.514465,476.046570 &#xA;&#9;C819.603760,472.870789 840.712952,466.615356 860.333862,455.839935 &#xA;&#9;C864.177185,453.729218 867.618469,450.886475 871.245178,448.381348 &#xA;&#9;C871.011353,447.824615 870.777527,447.267914 870.543701,446.711212 &#xA;&#9;C866.530640,447.138458 862.527161,447.733490 858.502808,447.962128 &#xA;&#9;C845.296326,448.712433 832.088135,449.707428 818.869751,449.911621 &#xA;&#9;C797.831726,450.236603 776.783997,450.125641 755.742249,449.959961 &#xA;&#9;C740.303284,449.838379 724.862000,449.487396 709.431763,448.950378 &#xA;&#9;C697.545105,448.536713 685.661377,447.845947 673.799133,446.970123 &#xA;&#9;C658.031372,445.805969 642.271301,444.490509 626.534668,442.964935 &#xA;&#9;C611.160767,441.474518 595.770874,439.992035 580.478943,437.855530 &#xA;&#9;C564.756897,435.658905 549.078735,433.012573 533.499512,429.960480 &#xA;&#9;C508.148468,424.994019 482.784180,420.009033 457.622894,414.179901 &#xA;&#9;C417.268036,404.830902 377.566071,393.047394 338.694458,378.744690 &#xA;&#9;C312.582581,369.136902 286.660614,358.904419 261.141266,347.828064 &#xA;&#9;C239.614929,338.484833 218.696487,327.712372 197.690460,317.209564 &#xA;&#9;C184.768295,310.748627 171.793640,304.239838 159.536102,296.634735 &#xA;&#9;C135.166306,281.514587 111.000076,266.027313 87.289619,249.898087 &#xA;&#9;C72.929749,240.129684 59.552670,228.911224 45.796440,218.263626 &#xA;&#9;C41.046497,214.587082 36.485039,210.667023 31.837486,206.858185 &#xA;&#9;C31.393444,207.268646 30.949400,207.679123 30.505356,208.089584 &#xA;&#9;C42.714859,238.417511 67.077980,258.918488 90.303810,280.434784 &#xA;&#9;C89.871185,285.596100 89.380684,290.994263 88.972679,296.398621 &#xA;&#9;C87.632339,314.152924 85.486061,331.897064 85.221840,349.668457 &#xA;&#9;C84.924057,369.697174 86.111374,389.761902 87.084373,409.790009 &#xA;&#9;C87.618958,420.793701 88.410072,431.859070 90.210991,442.709808 &#xA;&#9;C92.967346,459.317108 96.119972,475.904114 100.123398,492.250153 &#xA;&#9;C110.802795,535.854309 126.819763,577.304871 152.327423,614.593994 &#xA;&#9;C162.897385,630.045959 175.116165,643.875305 191.715851,653.450073 &#xA;&#9;C213.659393,666.106934 236.625900,669.396057 260.961731,662.479736 &#xA;&#9;C278.219208,657.575073 295.758667,656.542480 313.061584,660.739990 &#xA;&#9;C333.814301,665.774414 351.234894,677.313538 365.972900,692.592590 &#xA;&#9;C379.980804,707.114807 396.994141,715.393799 416.570312,719.110535 &#xA;&#9;C419.137207,719.597961 421.527771,721.014038 424.000000,722.000000 &#xA;z"/>
<path fill="#ffffff" opacity="1.000000" stroke="none" d="&#xA;M422.531342,0.999996 &#xA;&#9;C430.246307,3.648548 437.720825,5.804548 444.696838,9.036473 &#xA;&#9;C467.142914,19.435507 479.305847,38.168659 486.031586,61.189590 &#xA;&#9;C491.118408,78.600761 492.905029,96.475670 491.782776,114.391319 &#xA;&#9;C490.688568,131.859222 487.768188,149.210464 485.788147,166.628693 &#xA;&#9;C485.595001,168.327774 485.812866,171.040573 486.838745,171.679718 &#xA;&#9;C488.299072,172.589554 490.985931,172.680847 492.615936,171.943604 &#xA;&#9;C496.811462,170.045959 498.119324,166.128632 497.987732,161.743317 &#xA;&#9;C497.650299,150.502350 498.327271,139.376602 501.791687,128.585861 &#xA;&#9;C508.808716,106.729744 523.099854,90.964851 542.756836,79.649139 &#xA;&#9;C561.547058,68.832390 581.901917,62.921021 603.241699,59.978081 &#xA;&#9;C608.908813,59.196541 614.561401,58.310272 621.388062,57.299187 &#xA;&#9;C619.139465,60.968418 617.711243,63.669544 615.941284,66.124352 &#xA;&#9;C607.408142,77.959358 602.867371,91.618713 598.065796,105.139221 &#xA;&#9;C590.993164,125.054840 578.349487,140.421448 559.429749,149.606064 &#xA;&#9;C546.774658,155.749496 532.990173,159.523697 520.033997,165.107513 &#xA;&#9;C513.415833,167.959808 507.147705,171.993332 501.424774,176.405365 &#xA;&#9;C498.351654,178.774521 495.912018,183.373795 499.086548,187.320068 &#xA;&#9;C502.409332,191.450668 506.558594,188.244812 509.738281,186.509048 &#xA;&#9;C515.446960,183.392746 520.669800,179.401230 526.219299,175.975708 &#xA;&#9;C543.027527,165.600525 561.160522,158.286407 580.421448,154.171463 &#xA;&#9;C590.466919,152.025299 600.802429,151.131210 611.046143,150.039413 &#xA;&#9;C638.304810,147.134109 664.575439,151.947296 690.160889,161.014954 &#xA;&#9;C710.031494,168.057190 727.941650,178.622986 744.414124,191.818207 &#xA;&#9;C766.575317,209.570328 783.565308,231.406967 796.156799,256.661530 &#xA;&#9;C804.629456,273.654877 810.694702,291.563446 812.974365,310.525452 &#xA;&#9;C814.268005,321.285614 816.051208,332.136536 815.798401,342.903992 &#xA;&#9;C815.127991,371.447235 809.335815,398.976990 796.694641,424.844849 &#xA;&#9;C795.221985,427.858368 793.666626,429.152313 790.104309,429.102325 &#xA;&#9;C773.609009,428.870758 757.103394,429.260712 740.611511,428.927124 &#xA;&#9;C723.904358,428.589172 707.199768,427.837280 690.511536,426.941162 &#xA;&#9;C676.862915,426.208252 663.212219,425.276459 649.612793,423.926208 &#xA;&#9;C632.488281,422.226013 615.367676,420.345764 598.330627,417.939392 &#xA;&#9;C571.961487,414.214935 545.496460,410.839020 519.381470,405.732880 &#xA;&#9;C489.843658,399.957458 460.436096,393.224365 431.363403,385.444611 &#xA;&#9;C403.411621,377.964813 375.704926,369.351593 348.362213,359.875336 &#xA;&#9;C322.082062,350.767334 296.101532,340.623505 270.551544,329.628418 &#xA;&#9;C245.352631,318.784454 220.470139,307.044769 196.167740,294.324524 &#xA;&#9;C173.348755,282.380707 151.383850,268.785828 129.213943,255.629639 &#xA;&#9;C118.578651,249.318390 108.337646,242.342697 97.965141,235.698059 &#xA;&#9;C101.637711,212.351105 108.770462,190.663193 119.923836,170.302002 &#xA;&#9;C127.918076,155.708023 137.696808,142.523666 149.023773,130.276489 &#xA;&#9;C165.154083,112.835724 183.909393,99.075974 205.032379,88.597366 &#xA;&#9;C223.075378,79.646675 242.091629,73.050514 262.247955,71.135605 &#xA;&#9;C277.205292,69.714615 292.385529,68.303764 307.300507,69.321396 &#xA;&#9;C329.648926,70.846184 351.176880,76.643440 371.897247,85.804573 &#xA;&#9;C398.333008,97.492661 420.539978,114.703194 439.267120,136.185837 &#xA;&#9;C448.739136,147.051514 455.835175,159.989136 463.994568,171.997360 &#xA;&#9;C464.909637,173.344086 465.569733,174.911499 466.664642,176.079880 &#xA;&#9;C470.125793,179.773361 474.866882,178.840332 475.961273,173.875473 &#xA;&#9;C477.885681,165.144928 479.131287,156.424606 478.245514,147.236984 &#xA;&#9;C477.115875,135.519485 472.271271,125.917778 463.755157,118.666962 &#xA;&#9;C458.607269,114.283936 451.658844,111.909554 445.335510,109.037651 &#xA;&#9;C435.426941,104.537445 424.772980,101.366989 415.510193,95.833206 &#xA;&#9;C403.277588,88.525154 396.572723,76.548454 396.175720,62.263592 &#xA;&#9;C395.737274,46.486561 396.824097,30.672255 396.897186,14.872569 &#xA;&#9;C396.917267,10.527853 395.688019,6.177358 395.015991,1.414758 &#xA;&#9;C404.020905,1.000000 413.041779,1.000000 422.531342,0.999996 &#xA;z"/>
<path fill="#ffffff" opacity="1.000000" stroke="none" d="&#xA;M424.399994,722.000000 &#xA;&#9;C421.527771,721.014038 419.137207,719.597961 416.570312,719.110535 &#xA;&#9;C396.994141,715.393799 379.980804,707.114807 365.972900,692.592590 &#xA;&#9;C351.234894,677.313538 333.814301,665.774414 313.061584,660.739990 &#xA;&#9;C295.758667,656.542480 278.219208,657.575073 260.961731,662.479736 &#xA;&#9;C236.625900,669.396057 213.659393,666.106934 191.715851,653.450073 &#xA;&#9;C175.116165,643.875305 162.897385,630.045959 152.327423,614.593994 &#xA;&#9;C126.819763,577.304871 110.802795,535.854309 100.123398,492.250153 &#xA;&#9;C96.119972,475.904114 92.967346,459.317108 90.210991,442.709808 &#xA;&#9;C88.410072,431.859070 87.618958,420.793701 87.084373,409.790009 &#xA;&#9;C86.111374,389.761902 84.924057,369.697174 85.221840,349.668457 &#xA;&#9;C85.486061,331.897064 87.632339,314.152924 88.972679,296.398621 &#xA;&#9;C89.380684,290.994263 89.871185,285.596100 90.303810,280.434784 &#xA;&#9;C67.077980,258.918488 42.714859,238.417511 30.505356,208.089584 &#xA;&#9;C30.949400,207.679123 31.393444,207.268646 31.837486,206.858185 &#xA;&#9;C36.485039,210.667023 41.046497,214.587082 45.796440,218.263626 &#xA;&#9;C59.552670,228.911224 72.929749,240.129684 87.289619,249.898087 &#xA;&#9;C111.000076,266.027313 135.166306,281.514587 159.536102,296.634735 &#xA;&#9;C171.793640,304.239838 184.768295,310.748627 197.690460,317.209564 &#xA;&#9;C218.696487,327.712372 239.614929,338.484833 261.141266,347.828064 &#xA;&#9;C286.660614,358.904419 312.582581,369.136902 338.694458,378.744690 &#xA;&#9;C377.566071,393.047394 417.268036,404.830902 457.622894,414.179901 &#xA;&#9;C482.784180,420.009033 508.148468,424.994019 533.499512,429.960480 &#xA;&#9;C549.078735,433.012573 564.756897,435.658905 580.478943,437.855530 &#xA;&#9;C595.770874,439.992035 611.160767,441.474518 626.534668,442.964935 &#xA;&#9;C642.271301,444.490509 658.031372,445.805969 673.799133,446.970123 &#xA;&#9;C685.661377,447.845947 697.545105,448.536713 709.431763,448.950378 &#xA;&#9;C724.862000,449.487396 740.303284,449.838379 755.742249,449.959961 &#xA;&#9;C776.783997,450.125641 797.831726,450.236603 818.869751,449.911621 &#xA;&#9;C832.088135,449.707428 845.296326,448.712433 858.502808,447.962128 &#xA;&#9;C862.527161,447.733490 866.530640,447.138458 870.543701,446.711212 &#xA;&#9;C870.777527,447.267914 871.011353,447.824615 871.245178,448.381348 &#xA;&#9;C867.618469,450.886475 864.177185,453.729218 860.333862,455.839935 &#xA;&#9;C840.712952,466.615356 819.603760,472.870789 797.514465,476.046570 &#xA;&#9;C788.764832,477.304474 780.018982,478.600311 771.301819,480.060120 &#xA;&#9;C770.082825,480.264252 768.675598,481.262573 767.965759,482.307678 &#xA;&#9;C752.293335,505.383881 735.354126,527.446167 715.404358,547.017639 &#xA;&#9;C700.299316,561.836121 685.205078,576.695923 669.502197,590.868408 &#xA;&#9;C634.792603,622.195251 596.872925,649.349792 557.675293,674.705444 &#xA;&#9;C541.165833,685.384766 524.357910,695.679321 507.149719,705.177917 &#xA;&#9;C492.904724,713.040771 477.434052,718.085999 461.113464,720.036194 &#xA;&#9;C459.178040,720.267456 457.287476,720.874084 455.188049,721.653320 &#xA;&#9;C447.645752,722.000000 440.291504,722.000000 432.321625,721.678345 &#xA;&#9;C430.470673,721.571106 429.235321,721.785522 428.000000,722.000000 &#xA;&#9;C426.933319,722.000000 425.866669,722.000000 424.399994,722.000000 &#xA;z"/>
<path fill="#ffffff" opacity="1.000000" stroke="none" d="&#xA;M906.000000,451.535339 &#xA;&#9;C904.349060,453.813965 902.685059,455.616180 901.049500,457.443909 &#xA;&#9;C893.671204,465.689178 883.740356,469.432526 873.693054,472.971497 &#xA;&#9;C872.776855,473.294189 871.850220,473.587494 870.553711,473.463257 &#xA;&#9;C870.470581,472.290436 870.762207,471.548767 871.053833,470.807068 &#xA;&#9;C875.062927,466.743774 879.500793,463.016388 882.998474,458.552307 &#xA;&#9;C892.358032,446.606384 892.541687,433.467377 886.984314,419.848602 &#xA;&#9;C886.529846,418.734985 886.250366,417.549957 885.448547,414.989502 &#xA;&#9;C895.508118,420.971832 900.836060,428.988373 905.666382,437.867004 &#xA;&#9;C906.000000,442.356903 906.000000,446.713806 906.000000,451.535339 &#xA;z"/>
<path fill="#ffffff" opacity="1.000000" stroke="none" d="&#xA;M6.957500,182.885712 &#xA;&#9;C14.379342,175.886368 23.623627,173.398132 34.669334,172.054245 &#xA;&#9;C16.384127,188.664795 7.902472,206.872742 21.990671,229.943237 &#xA;&#9;C11.709163,222.477356 5.027036,213.061142 1.344036,201.147552 &#xA;&#9;C1.000000,200.555557 1.000000,200.111099 1.377453,199.255142 &#xA;&#9;C2.817358,194.532791 3.879810,190.221970 4.942263,185.911133 &#xA;&#9;C4.942264,185.911133 4.981235,185.990845 5.304148,185.932831 &#xA;&#9;C6.070541,184.878448 6.514020,183.882080 6.957500,182.885712 &#xA;z"/>
<path fill="#ffffff" opacity="1.000000" stroke="none" d="&#xA;M4.637644,186.045929 &#xA;&#9;C3.879810,190.221970 2.817358,194.532791 1.377453,198.921814 &#xA;&#9;C1.000000,195.638718 1.000000,192.277420 1.000001,188.458069 &#xA;&#9;C2.111010,187.393585 3.222018,186.787170 4.637644,186.045929 &#xA;z"/>
<path fill="#ffffff00" opacity="1.000000" stroke="none" d="&#xA;M428.399994,722.000000 &#xA;&#9;C429.235321,721.785522 430.470673,721.571106 431.852997,721.678345 &#xA;&#9;C430.933319,722.000000 429.866669,722.000000 428.399994,722.000000 &#xA;z"/>
<path fill="#ffffff" opacity="1.000000" stroke="none" d="&#xA;M870.691284,470.894958 &#xA;&#9;C870.762207,471.548767 870.470581,472.290436 870.123840,473.427246 &#xA;&#9;C868.866272,474.189362 867.663818,474.556305 866.461365,474.923248 &#xA;&#9;C866.223206,474.564209 865.985046,474.205170 865.746948,473.846130 &#xA;&#9;C867.274170,472.891693 868.801453,471.937286 870.691284,470.894958 &#xA;z"/>
<path fill="#ffffff" opacity="1.000000" stroke="none" d="&#xA;M6.657793,183.021729 &#xA;&#9;C6.514020,183.882080 6.070541,184.878448 5.265818,185.910492 &#xA;&#9;C5.389079,185.016693 5.873583,184.087204 6.657793,183.021729 &#xA;z"/>
</svg>